<?xml version="1.0" encoding="UTF-8"?><svg id="a" xmlns="http://www.w3.org/2000/svg" viewBox="0 0 2253.48 1663.69"><defs><style>.b{fill:#ad2323;}.c{fill:#698bed;}.d{fill:#74c47c;}.e{fill:#c69;}.f{fill:#6183d8;}.g{fill:#f33;}.h{fill:#558e5b;}.i{fill:#6ab774;}.j{fill:#a55681;}.k{fill:#4c7f50;}.l{fill:#7bc9c0;}.m{fill:#71b5ab;}</style></defs><rect class="b" x="1077.12" y="743.58" width="1583.27" height="42" transform="translate(326.61 2067.9) rotate(-62.45)"/><rect class="j" x="1411.76" y="6.95" width="42" height="1583.27" transform="translate(-110.28 242.2) rotate(-9.31)"/><rect class="f" x="457.72" y="31.01" width="42" height="1583.27" transform="translate(-293.04 265.6) rotate(-23.98)"/><rect class="k" x="1263.42" y="-109.04" width="42" height="1750.66" transform="translate(-208.38 858.36) rotate(-34.35)"/><rect class="m" x="933.42" y="65.66" width="42" height="1583.27" transform="translate(-202.79 303.47) rotate(-16.36)"/><rect class="i" x="-378.5" y="690.61" width="1583.27" height="42" transform="translate(-408.86 748.82) rotate(-62.45)"/><rect class="c" x="438.24" y="-55.98" width="42" height="1583.27" transform="translate(-259.37 250.17) rotate(-23.98)"/><rect class="g" x="1003.69" y="824.86" width="1583.27" height="42" transform="translate(215.08 2046.49) rotate(-62.45)"/><rect class="e" x="1400.41" y="87.44" width="42" height="1583.27" transform="translate(-123.45 241.43) rotate(-9.31)"/><rect class="l" x="940.93" y="53.96" width="42" height="1583.27" transform="translate(-199.2 305.11) rotate(-16.36)"/><rect class="h" x="1327.23" y="-51.31" width="42" height="1750.66" transform="translate(-229.83 904.43) rotate(-34.35)"/><rect class="d" x="-406.91" y="801.65" width="1583.27" height="42" transform="translate(-522.59 783.31) rotate(-62.45)"/></svg>